P2
7 5
255
0 0   0 0 0 0 0
0 100 0 0 0 0 0
0 100 0 0 0 0 0
0 100 200 200 200 200 0
0 0   0 0 0 0 0
